<svg xmlns="http://www.w3.org/2000/svg" width="94.937" height="24.376" viewBox="0 0 94.937 24.376">
    <g data-name="Group 2">
        <g data-name="&lt;Group&gt;">
            <g data-name="&lt;Group&gt;">
                <path d="M14.627 11.447a4.892 4.892 0 0 1 2.329-4.1 5.007 5.007 0 0 0-3.945-2.133c-1.66-.174-3.269.993-4.115.993-.862 0-2.165-.976-3.567-.947a5.254 5.254 0 0 0-4.421 2.7c-1.912 3.31-.486 8.174 1.345 10.849.916 1.31 1.987 2.773 3.388 2.722 1.371-.057 1.883-.874 3.538-.874 1.64 0 2.12.874 3.55.841 1.471-.024 2.4-1.316 3.282-2.638a10.835 10.835 0 0 0 1.5-3.057 4.727 4.727 0 0 1-2.886-4.348zM11.926 3.453a4.816 4.816 0 0 0 1.1-3.45 4.9 4.9 0 0 0-3.171 1.64 4.583 4.583 0 0 0-1.128 3.32 4.052 4.052 0 0 0 3.199-1.51z" data-name="&lt;Path&gt;"/>
            </g>
            <g data-name="Group 461">
                <path d="M31.075 18.338h-4.5l-1.08 3.19H23.59l4.262-11.8h1.98l4.262 11.8h-1.939zm-4.033-1.472h3.566l-1.758-5.178h-.049z" data-name="Path 158"/>
                <path d="M43.297 17.226c0 2.674-1.431 4.393-3.591 4.393a2.918 2.918 0 0 1-2.708-1.506h-.038v4.262h-1.769V12.923h1.71v1.431h.032a3.053 3.053 0 0 1 2.74-1.521c2.187 0 3.624 1.726 3.624 4.393zm-1.816 0c0-1.742-.9-2.888-2.274-2.888-1.35 0-2.258 1.17-2.258 2.888 0 1.734.908 2.9 2.258 2.9 1.374 0 2.274-1.137 2.274-2.9z" data-name="Path 159"/>
                <path d="M52.767 17.226c0 2.674-1.432 4.393-3.592 4.393a2.918 2.918 0 0 1-2.708-1.506h-.041v4.262h-1.759V12.923h1.71v1.431h.032a3.053 3.053 0 0 1 2.74-1.521c2.181 0 3.618 1.726 3.618 4.393zm-1.816 0c0-1.742-.9-2.888-2.274-2.888-1.35 0-2.258 1.17-2.258 2.888 0 1.734.908 2.9 2.258 2.9 1.374 0 2.274-1.137 2.274-2.9z" data-name="Path 160"/>
                <path d="M59.028 18.24c.131 1.171 1.268 1.939 2.822 1.939 1.489 0 2.56-.769 2.56-1.824 0-.916-.646-1.465-2.176-1.841l-1.53-.369c-2.167-.524-3.174-1.537-3.174-3.182 0-2.037 1.775-3.435 4.294-3.435 2.5 0 4.205 1.4 4.263 3.435h-1.782c-.107-1.178-1.08-1.889-2.5-1.889s-2.4.719-2.4 1.766c0 .835.622 1.326 2.143 1.7l1.3.319c2.422.573 3.427 1.546 3.427 3.272 0 2.208-1.758 3.591-4.556 3.591-2.618 0-4.385-1.351-4.5-3.486z" data-name="Path 161"/>
                <path d="M70.09 10.886v2.037h1.637v1.4H70.09v4.743c0 .737.328 1.08 1.047 1.08a5.52 5.52 0 0 0 .581-.041v1.391a4.851 4.851 0 0 1-.981.082c-1.742 0-2.422-.654-2.422-2.323v-4.934h-1.251v-1.4h1.251v-2.035z" data-name="Path 162"/>
                <path d="M72.673 17.226c0-2.708 1.595-4.409 4.082-4.409s4.082 1.7 4.082 4.409-1.579 4.409-4.082 4.409-4.082-1.694-4.082-4.409zm6.364 0c0-1.857-.851-2.954-2.283-2.954s-2.283 1.1-2.283 2.954c0 1.865.851 2.953 2.283 2.953s2.283-1.088 2.283-2.953z" data-name="Path 163"/>
                <path d="M82.294 12.923h1.685v1.462h.041a2.053 2.053 0 0 1 2.07-1.555 2.725 2.725 0 0 1 .605.066v1.652a2.469 2.469 0 0 0-.794-.107 1.78 1.78 0 0 0-1.841 1.98v5.1h-1.766z" data-name="Path 164"/>
                <path d="M94.839 19.001c-.238 1.562-1.759 2.634-3.706 2.634-2.5 0-4.057-1.677-4.057-4.368s1.562-4.45 3.983-4.45c2.381 0 3.878 1.636 3.878 4.245v.605H88.86v.107a2.241 2.241 0 0 0 2.315 2.438 1.947 1.947 0 0 0 1.987-1.21zm-5.972-2.568h4.3a2.07 2.07 0 0 0-2.111-2.184 2.179 2.179 0 0 0-2.191 2.184z" data-name="Path 165"/>
            </g>
        </g>
        <g data-name="Group 463">
            <path d="M26.822.841a2.509 2.509 0 0 1 2.669 2.818c0 1.812-.979 2.854-2.669 2.854h-2.049V.841zM25.654 5.71h1.069a1.783 1.783 0 0 0 1.87-2.04 1.788 1.788 0 0 0-1.87-2.028h-1.069z" data-name="Path 166"/>
            <path d="M30.485 4.37a2.028 2.028 0 1 1 4.037 0 2.028 2.028 0 1 1-4.037 0zm3.168 0c0-.928-.417-1.47-1.148-1.47s-1.147.543-1.147 1.47.413 1.471 1.147 1.471 1.148-.54 1.148-1.471z" data-name="Path 167"/>
            <path d="M39.889 6.512h-.876l-.885-3.152h-.065l-.881 3.152h-.868l-1.18-4.28h.857l.767 3.266h.063l.88-3.266h.81l.88 3.266h.067l.763-3.266h.842z" data-name="Path 168"/>
            <path d="M42.057 2.232h.813v.68h.063a1.281 1.281 0 0 1 1.277-.763 1.392 1.392 0 0 1 1.482 1.593v2.77h-.845V3.954c0-.688-.3-1.03-.924-1.03a.982.982 0 0 0-1.02 1.085v2.5h-.845z" data-name="Path 169"/>
            <path d="M47.038.561h.845v5.951h-.845z" data-name="Path 170"/>
            <path d="M49.056 4.37a2.028 2.028 0 1 1 4.037 0 2.028 2.028 0 1 1-4.037 0zm3.168 0c0-.928-.417-1.47-1.148-1.47s-1.147.543-1.147 1.47.41 1.471 1.147 1.471 1.148-.54 1.148-1.471z" data-name="Path 171"/>
            <path d="M53.982 5.301c0-.77.574-1.215 1.592-1.278l1.159-.067v-.369c0-.452-.3-.707-.876-.707-.472 0-.8.173-.892.476h-.818c.086-.735.778-1.207 1.749-1.207 1.073 0 1.678.534 1.678 1.438v2.924h-.812v-.6h-.067a1.44 1.44 0 0 1-1.286.672 1.293 1.293 0 0 1-1.427-1.282zm2.751-.366v-.358l-1.045.067c-.589.039-.857.24-.857.617s.334.609.794.609a1.009 1.009 0 0 0 1.108-.936z" data-name="Path 172"/>
            <path d="M58.686 4.37c0-1.352.7-2.209 1.777-2.209a1.411 1.411 0 0 1 1.313.751h.062V.561h.845v5.951h-.809v-.676h-.067a1.486 1.486 0 0 1-1.344.747c-1.089 0-1.777-.859-1.777-2.213zm.873 0c0 .908.428 1.454 1.144 1.454s1.152-.554 1.152-1.45-.445-1.45-1.153-1.45-1.144.55-1.144 1.45z" data-name="Path 173"/>
            <path d="M66.178 4.37a2.028 2.028 0 1 1 4.037 0 2.028 2.028 0 1 1-4.037 0zm3.168 0c0-.928-.417-1.47-1.148-1.47s-1.15.541-1.15 1.47.413 1.474 1.147 1.474 1.153-.543 1.153-1.474z" data-name="Path 174"/>
            <path d="M71.348 2.232h.813v.68h.063a1.281 1.281 0 0 1 1.277-.763 1.392 1.392 0 0 1 1.478 1.593v2.77h-.84V3.954c0-.688-.3-1.03-.924-1.03a.982.982 0 0 0-1.022 1.085v2.5h-.845z" data-name="Path 175"/>
            <path d="M79.756 1.167v1.085h.927v.712h-.927v2.2c0 .448.185.645.605.645a2.819 2.819 0 0 0 .322-.019v.7a2.771 2.771 0 0 1-.459.043c-.939 0-1.313-.33-1.313-1.156V2.963h-.679v-.712h.679V1.167z" data-name="Path 176"/>
            <path d="M81.833.561h.837v2.363h.067a1.317 1.317 0 0 1 1.305-.767 1.41 1.41 0 0 1 1.474 1.6V6.52h-.846V3.957c0-.684-.318-1.03-.915-1.03a1 1 0 0 0-1.078 1.085v2.5h-.844z" data-name="Path 177"/>
            <path d="M90.446 5.356a1.738 1.738 0 0 1-1.855 1.238 1.944 1.944 0 0 1-1.977-2.209 1.974 1.974 0 0 1 1.973-2.236c1.191 0 1.909.814 1.909 2.158v.295h-3.021v.047a1.131 1.131 0 0 0 1.14 1.226 1.026 1.026 0 0 0 1.018-.519zm-2.971-1.379h2.162a1.033 1.033 0 0 0-1.054-1.109 1.095 1.095 0 0 0-1.108 1.109z" data-name="Path 178"/>
        </g>
    </g>
</svg>
